<?xml version="1.0" standalone="no"?><!-- Generator: Gravit.io --><svg xmlns="http://www.w3.org/2000/svg" xmlns:xlink="http://www.w3.org/1999/xlink" style="isolation:isolate" viewBox="0 0 150 52.622" width="150" height="52.622"><defs><clipPath id="_clipPath_CFDzEfcGWAvzjefm6YAc4I1oGIj3VRrO"><rect width="150" height="52.622"/></clipPath></defs><g clip-path="url(#_clipPath_CFDzEfcGWAvzjefm6YAc4I1oGIj3VRrO)"><rect width="150" height="52.622" style="fill:rgb(182,24,39)"/><g id="Group"><g id="Group"><path d=" M 98.451 41.862 L 80.627 41.862 L 80.627 9.887 L 84.345 9.887 L 84.345 38.494 L 98.451 38.494 L 98.451 41.862 Z  M 124.018 29.855 L 124.018 29.855 L 124.018 29.855 Q 124.018 35.716 121.065 39.008 L 121.065 39.008 L 121.065 39.008 Q 118.113 42.299 112.908 42.299 L 112.908 42.299 L 112.908 42.299 Q 109.693 42.299 107.199 40.79 L 107.199 40.79 L 107.199 40.79 Q 104.706 39.281 103.35 36.46 L 103.35 36.46 L 103.35 36.46 Q 101.994 33.638 101.994 29.855 L 101.994 29.855 L 101.994 29.855 Q 101.994 23.993 104.925 20.724 L 104.925 20.724 L 104.925 20.724 Q 107.856 17.454 113.061 17.454 L 113.061 17.454 L 113.061 17.454 Q 118.091 17.454 121.054 20.8 L 121.054 20.8 L 121.054 20.8 Q 124.018 24.147 124.018 29.855 Z  M 105.756 29.855 L 105.756 29.855 L 105.756 29.855 Q 105.756 34.448 107.593 36.853 L 107.593 36.853 L 107.593 36.853 Q 109.43 39.259 112.995 39.259 L 112.995 39.259 L 112.995 39.259 Q 116.56 39.259 118.408 36.864 L 118.408 36.864 L 118.408 36.864 Q 120.256 34.469 120.256 29.855 L 120.256 29.855 L 120.256 29.855 Q 120.256 25.284 118.408 22.911 L 118.408 22.911 L 118.408 22.911 Q 116.56 20.538 112.951 20.538 L 112.951 20.538 L 112.951 20.538 Q 109.386 20.538 107.571 22.878 L 107.571 22.878 L 107.571 22.878 Q 105.756 25.218 105.756 29.855 Z  M 141.711 17.892 L 150 17.892 L 150 20.188 L 145.56 20.713 L 145.56 20.713 Q 146.173 21.478 146.654 22.714 L 146.654 22.714 L 146.654 22.714 Q 147.135 23.95 147.135 25.503 L 147.135 25.503 L 147.135 25.503 Q 147.135 29.024 144.729 31.123 L 144.729 31.123 L 144.729 31.123 Q 142.323 33.223 138.124 33.223 L 138.124 33.223 L 138.124 33.223 Q 137.053 33.223 136.112 33.048 L 136.112 33.048 L 136.112 33.048 Q 133.794 34.273 133.794 36.132 L 133.794 36.132 L 133.794 36.132 Q 133.794 37.116 134.603 37.586 L 134.603 37.586 L 134.603 37.586 Q 135.412 38.056 137.381 38.056 L 137.381 38.056 L 141.624 38.056 L 141.624 38.056 Q 145.517 38.056 147.605 39.696 L 147.605 39.696 L 147.605 39.696 Q 149.694 41.337 149.694 44.464 L 149.694 44.464 L 149.694 44.464 Q 149.694 48.445 146.501 50.533 L 146.501 50.533 L 146.501 50.533 Q 143.308 52.622 137.184 52.622 L 137.184 52.622 L 137.184 52.622 Q 132.482 52.622 129.934 50.872 L 129.934 50.872 L 129.934 50.872 Q 127.386 49.123 127.386 45.93 L 127.386 45.93 L 127.386 45.93 Q 127.386 43.743 128.786 42.146 L 128.786 42.146 L 128.786 42.146 Q 130.185 40.549 132.722 39.981 L 132.722 39.981 L 132.722 39.981 Q 131.804 39.565 131.18 38.69 L 131.18 38.69 L 131.18 38.69 Q 130.557 37.816 130.557 36.656 L 130.557 36.656 L 130.557 36.656 Q 130.557 35.344 131.257 34.36 L 131.257 34.36 L 131.257 34.36 Q 131.957 33.376 133.466 32.457 L 133.466 32.457 L 133.466 32.457 Q 131.607 31.692 130.437 29.855 L 130.437 29.855 L 130.437 29.855 Q 129.267 28.018 129.267 25.656 L 129.267 25.656 L 129.267 25.656 Q 129.267 21.719 131.629 19.587 L 131.629 19.587 L 131.629 19.587 Q 133.991 17.454 138.321 17.454 L 138.321 17.454 L 138.321 17.454 Q 140.202 17.454 141.711 17.892 L 141.711 17.892 Z  M 130.885 45.886 L 130.885 45.886 L 130.885 45.886 Q 130.885 47.832 132.525 48.838 L 132.525 48.838 L 132.525 48.838 Q 134.166 49.844 137.228 49.844 L 137.228 49.844 L 137.228 49.844 Q 141.799 49.844 143.997 48.478 L 143.997 48.478 L 143.997 48.478 Q 146.195 47.111 146.195 44.77 L 146.195 44.77 L 146.195 44.77 Q 146.195 42.824 144.992 42.069 L 144.992 42.069 L 144.992 42.069 Q 143.789 41.315 140.464 41.315 L 140.464 41.315 L 136.112 41.315 L 136.112 41.315 Q 133.641 41.315 132.263 42.496 L 132.263 42.496 L 132.263 42.496 Q 130.885 43.677 130.885 45.886 Z  M 132.854 25.568 L 132.854 25.568 L 132.854 25.568 Q 132.854 28.083 134.275 29.374 L 134.275 29.374 L 134.275 29.374 Q 135.697 30.664 138.234 30.664 L 138.234 30.664 L 138.234 30.664 Q 143.548 30.664 143.548 25.503 L 143.548 25.503 L 143.548 25.503 Q 143.548 20.101 138.168 20.101 L 138.168 20.101 L 138.168 20.101 Q 135.609 20.101 134.231 21.478 L 134.231 21.478 L 134.231 21.478 Q 132.854 22.856 132.854 25.568 Z " fill-rule="evenodd" fill="rgb(255,255,255)"/></g><g id="Group"><path d=" M 15.353 12.752 L 15.353 12.752 L 15.353 12.752 Q 10.082 12.752 7.031 16.262 L 7.031 16.262 L 7.031 16.262 Q 3.98 19.772 3.98 25.874 L 3.98 25.874 L 3.98 25.874 Q 3.98 32.151 6.922 35.574 L 6.922 35.574 L 6.922 35.574 Q 9.864 38.997 15.309 38.997 L 15.309 38.997 L 15.309 38.997 Q 18.656 38.997 22.942 37.794 L 22.942 37.794 L 22.942 41.052 L 22.942 41.052 Q 19.618 42.299 14.741 42.299 L 14.741 42.299 L 14.741 42.299 Q 7.677 42.299 3.838 38.012 L 3.838 38.012 L 3.838 38.012 Q 0 33.726 0 25.831 L 0 25.831 L 0 25.831 Q 0 20.888 1.848 17.17 L 1.848 17.17 L 1.848 17.17 Q 3.696 13.452 7.184 11.44 L 7.184 11.44 L 7.184 11.44 Q 10.673 9.428 15.397 9.428 L 15.397 9.428 L 15.397 9.428 Q 20.427 9.428 24.189 11.265 L 24.189 11.265 L 22.614 14.458 L 22.614 14.458 Q 18.984 12.752 15.353 12.752 Z " fill="rgb(255,255,255)"/><path d=" M 46.803 41.862 L 44.113 41.862 L 43.391 38.45 L 43.216 38.45 L 43.216 38.45 Q 41.423 40.703 39.64 41.501 L 39.64 41.501 L 39.64 41.501 Q 37.858 42.299 35.19 42.299 L 35.19 42.299 L 35.19 42.299 Q 31.625 42.299 29.602 40.462 L 29.602 40.462 L 29.602 40.462 Q 27.579 38.625 27.579 35.235 L 27.579 35.235 L 27.579 35.235 Q 27.579 27.974 39.192 27.624 L 39.192 27.624 L 43.26 27.493 L 43.26 26.006 L 43.26 26.006 Q 43.26 23.184 42.046 21.839 L 42.046 21.839 L 42.046 21.839 Q 40.832 20.494 38.164 20.494 L 38.164 20.494 L 38.164 20.494 Q 35.168 20.494 31.384 22.331 L 31.384 22.331 L 30.269 19.554 L 30.269 19.554 Q 32.04 18.591 34.151 18.045 L 34.151 18.045 L 34.151 18.045 Q 36.261 17.498 38.383 17.498 L 38.383 17.498 L 38.383 17.498 Q 42.669 17.498 44.736 19.401 L 44.736 19.401 L 44.736 19.401 Q 46.803 21.303 46.803 25.503 L 46.803 25.503 L 46.803 41.862 Z " fill="rgb(255,255,255)"/><path d=" M 35.911 39.303 L 35.911 39.303 L 35.911 39.303 Q 39.301 39.303 41.237 37.444 L 41.237 37.444 L 41.237 37.444 Q 43.172 35.585 43.172 32.239 L 43.172 32.239 L 43.172 30.073 L 39.542 30.227 L 39.542 30.227 Q 35.212 30.38 33.298 31.572 L 33.298 31.572 L 33.298 31.572 Q 31.384 32.764 31.384 35.279 L 31.384 35.279 L 31.384 35.279 Q 31.384 37.247 32.576 38.275 L 32.576 38.275 L 32.576 38.275 Q 33.768 39.303 35.911 39.303 Z " fill="rgb(255,255,255)"/><path d=" M 36.345 37.718 L 36.345 37.718 L 36.345 37.718 Q 38.659 37.718 39.98 36.498 L 39.98 36.498 L 39.98 36.498 Q 41.301 35.277 41.301 33.08 L 41.301 33.08 L 41.301 31.658 L 38.823 31.759 L 38.823 31.759 Q 35.868 31.859 34.561 32.642 L 34.561 32.642 L 34.561 32.642 Q 33.255 33.424 33.255 35.076 L 33.255 35.076 L 33.255 35.076 Q 33.255 36.368 34.069 37.043 L 34.069 37.043 L 34.069 37.043 Q 34.882 37.718 36.345 37.718 Z " fill="rgb(255,255,255)"/><path d=" M 62.025 39.303 L 62.025 39.303 L 62.025 39.303 Q 62.987 39.303 63.884 39.161 L 63.884 39.161 L 63.884 39.161 Q 64.78 39.019 65.305 38.865 L 65.305 38.865 L 65.305 41.643 L 65.305 41.643 Q 64.715 41.927 63.567 42.113 L 63.567 42.113 L 63.567 42.113 Q 62.418 42.299 61.5 42.299 L 61.5 42.299 L 61.5 42.299 Q 54.545 42.299 54.545 34.972 L 54.545 34.972 L 54.545 20.713 L 51.111 20.713 L 51.111 18.963 L 54.545 17.454 L 56.076 12.336 L 58.176 12.336 L 58.176 17.892 L 65.13 17.892 L 65.13 20.713 L 58.176 20.713 L 58.176 34.819 L 58.176 34.819 Q 58.176 36.985 59.203 38.144 L 59.203 38.144 L 59.203 38.144 Q 60.231 39.303 62.025 39.303 Z " fill="rgb(255,255,255)"/><path d=" M 64.584 39.116 C 66.398 38.525 67.73 37.107 68.214 36.633 C 77.986 27.035 57.956 3.562 75.226 0.411 C 77.182 0.054 77.297 -0.086 77.432 0.053 C 77.454 0.076 77.895 2.058 77.401 2.09 C 66.852 2.772 70.795 13.008 72.922 22.582 C 73.671 26.789 73.533 32.272 72.447 35.146 C 71.065 38.804 66.007 41.61 64.872 41.81 C 63.926 41.976 63.767 39.382 64.584 39.116 Z " fill="rgb(255,255,255)"/></g></g></g></svg>