<?xml version="1.0" standalone="no"?><!-- Generator: Gravit.io --><svg xmlns="http://www.w3.org/2000/svg" xmlns:xlink="http://www.w3.org/1999/xlink" style="isolation:isolate" viewBox="0 0 1000 350.813" width="1000" height="350.813"><defs><clipPath id="_clipPath_kcH9eILj0ljC6FDlG7dMRkP5YW1onylf"><rect width="1000" height="350.813"/></clipPath></defs><g clip-path="url(#_clipPath_kcH9eILj0ljC6FDlG7dMRkP5YW1onylf)"><g id="Group"><g id="Group"><path d=" M 656.341 279.078 L 537.512 279.078 L 537.512 65.913 L 562.298 65.913 L 562.298 256.624 L 656.341 256.624 L 656.341 279.078 Z  M 826.786 199.032 L 826.786 199.032 L 826.786 199.032 Q 826.786 238.107 807.102 260.05 L 807.102 260.05 L 807.102 260.05 Q 787.419 281.994 752.717 281.994 L 752.717 281.994 L 752.717 281.994 Q 731.284 281.994 714.663 271.933 L 714.663 271.933 L 714.663 271.933 Q 698.041 261.873 689.001 243.064 L 689.001 243.064 L 689.001 243.064 Q 679.962 224.256 679.962 199.032 L 679.962 199.032 L 679.962 199.032 Q 679.962 159.956 699.499 138.159 L 699.499 138.159 L 699.499 138.159 Q 719.037 116.361 753.738 116.361 L 753.738 116.361 L 753.738 116.361 Q 787.273 116.361 807.029 138.669 L 807.029 138.669 L 807.029 138.669 Q 826.786 160.977 826.786 199.032 Z  M 705.04 199.032 L 705.04 199.032 L 705.04 199.032 Q 705.04 229.65 717.287 245.689 L 717.287 245.689 L 717.287 245.689 Q 729.535 261.727 753.301 261.727 L 753.301 261.727 L 753.301 261.727 Q 777.067 261.727 789.387 245.762 L 789.387 245.762 L 789.387 245.762 Q 801.707 229.796 801.707 199.032 L 801.707 199.032 L 801.707 199.032 Q 801.707 168.559 789.387 152.739 L 789.387 152.739 L 789.387 152.739 Q 777.067 136.919 753.009 136.919 L 753.009 136.919 L 753.009 136.919 Q 729.243 136.919 717.141 152.52 L 717.141 152.52 L 717.141 152.52 Q 705.04 168.121 705.04 199.032 Z  M 944.741 119.277 L 1000 119.277 L 1000 134.587 L 970.402 138.086 L 970.402 138.086 Q 974.484 143.189 977.692 151.427 L 977.692 151.427 L 977.692 151.427 Q 980.9 159.665 980.9 170.017 L 980.9 170.017 L 980.9 170.017 Q 980.9 193.491 964.861 207.488 L 964.861 207.488 L 964.861 207.488 Q 948.823 221.485 920.829 221.485 L 920.829 221.485 L 920.829 221.485 Q 913.684 221.485 907.415 220.319 L 907.415 220.319 L 907.415 220.319 Q 891.96 228.484 891.96 240.877 L 891.96 240.877 L 891.96 240.877 Q 891.96 247.438 897.354 250.573 L 897.354 250.573 L 897.354 250.573 Q 902.749 253.708 915.871 253.708 L 915.871 253.708 L 944.157 253.708 L 944.157 253.708 Q 970.11 253.708 984.035 264.643 L 984.035 264.643 L 984.035 264.643 Q 997.959 275.579 997.959 296.428 L 997.959 296.428 L 997.959 296.428 Q 997.959 322.965 976.671 336.889 L 976.671 336.889 L 976.671 336.889 Q 955.384 350.813 914.559 350.813 L 914.559 350.813 L 914.559 350.813 Q 883.211 350.813 866.225 339.149 L 866.225 339.149 L 866.225 339.149 Q 849.239 327.485 849.239 306.197 L 849.239 306.197 L 849.239 306.197 Q 849.239 291.617 858.571 280.973 L 858.571 280.973 L 858.571 280.973 Q 867.902 270.33 884.815 266.539 L 884.815 266.539 L 884.815 266.539 Q 878.692 263.768 874.536 257.936 L 874.536 257.936 L 874.536 257.936 Q 870.381 252.104 870.381 244.377 L 870.381 244.377 L 870.381 244.377 Q 870.381 235.628 875.046 229.067 L 875.046 229.067 L 875.046 229.067 Q 879.712 222.506 889.773 216.382 L 889.773 216.382 L 889.773 216.382 Q 877.379 211.279 869.579 199.032 L 869.579 199.032 L 869.579 199.032 Q 861.778 186.784 861.778 171.037 L 861.778 171.037 L 861.778 171.037 Q 861.778 144.793 877.525 130.577 L 877.525 130.577 L 877.525 130.577 Q 893.272 116.361 922.141 116.361 L 922.141 116.361 L 922.141 116.361 Q 934.68 116.361 944.741 119.277 L 944.741 119.277 Z  M 872.568 305.906 L 872.568 305.906 L 872.568 305.906 Q 872.568 318.882 883.503 325.589 L 883.503 325.589 L 883.503 325.589 Q 894.438 332.296 914.851 332.296 L 914.851 332.296 L 914.851 332.296 Q 945.324 332.296 959.977 323.183 L 959.977 323.183 L 959.977 323.183 Q 974.63 314.071 974.63 298.47 L 974.63 298.47 L 974.63 298.47 Q 974.63 285.493 966.611 280.463 L 966.611 280.463 L 966.611 280.463 Q 958.592 275.433 936.43 275.433 L 936.43 275.433 L 907.415 275.433 L 907.415 275.433 Q 890.939 275.433 881.753 283.306 L 881.753 283.306 L 881.753 283.306 Q 872.568 291.179 872.568 305.906 Z  M 885.69 170.454 L 885.69 170.454 L 885.69 170.454 Q 885.69 187.222 895.167 195.824 L 895.167 195.824 L 895.167 195.824 Q 904.645 204.426 921.558 204.426 L 921.558 204.426 L 921.558 204.426 Q 956.988 204.426 956.988 170.017 L 956.988 170.017 L 956.988 170.017 Q 956.988 134.003 921.12 134.003 L 921.12 134.003 L 921.12 134.003 Q 904.061 134.003 894.876 143.189 L 894.876 143.189 L 894.876 143.189 Q 885.69 152.375 885.69 170.454 Z " fill-rule="evenodd" fill="rgb(83,83,83)"/></g><g id="Group"><path d=" M 102.354 85.013 L 102.354 85.013 L 102.354 85.013 Q 67.215 85.013 46.876 108.415 L 46.876 108.415 L 46.876 108.415 Q 26.536 131.816 26.536 172.496 L 26.536 172.496 L 26.536 172.496 Q 26.536 214.341 46.147 237.159 L 46.147 237.159 L 46.147 237.159 Q 65.757 259.978 102.062 259.978 L 102.062 259.978 L 102.062 259.978 Q 124.37 259.978 152.948 251.958 L 152.948 251.958 L 152.948 273.683 L 152.948 273.683 Q 130.786 281.994 98.271 281.994 L 98.271 281.994 L 98.271 281.994 Q 51.177 281.994 25.588 253.416 L 25.588 253.416 L 25.588 253.416 Q 0 224.839 0 172.204 L 0 172.204 L 0 172.204 Q 0 139.252 12.32 114.466 L 12.32 114.466 L 12.32 114.466 Q 24.641 89.679 47.896 76.265 L 47.896 76.265 L 47.896 76.265 Q 71.152 62.851 102.646 62.851 L 102.646 62.851 L 102.646 62.851 Q 136.18 62.851 161.259 75.099 L 161.259 75.099 L 150.761 96.386 L 150.761 96.386 Q 126.557 85.013 102.354 85.013 Z " fill="rgb(255,178,34)"/><path d=" M 312.019 279.078 L 294.085 279.078 L 289.274 256.332 L 288.108 256.332 L 288.108 256.332 Q 276.152 271.35 264.269 276.672 L 264.269 276.672 L 264.269 276.672 Q 252.386 281.994 234.598 281.994 L 234.598 281.994 L 234.598 281.994 Q 210.832 281.994 197.345 269.746 L 197.345 269.746 L 197.345 269.746 Q 183.858 257.499 183.858 234.899 L 183.858 234.899 L 183.858 234.899 Q 183.858 186.493 261.28 184.16 L 261.28 184.16 L 288.399 183.285 L 288.399 173.37 L 288.399 173.37 Q 288.399 154.562 280.307 145.595 L 280.307 145.595 L 280.307 145.595 Q 272.215 136.628 254.427 136.628 L 254.427 136.628 L 254.427 136.628 Q 234.452 136.628 209.228 148.875 L 209.228 148.875 L 201.792 130.358 L 201.792 130.358 Q 213.602 123.943 227.672 120.298 L 227.672 120.298 L 227.672 120.298 Q 241.742 116.653 255.885 116.653 L 255.885 116.653 L 255.885 116.653 Q 284.462 116.653 298.241 129.338 L 298.241 129.338 L 298.241 129.338 Q 312.019 142.023 312.019 170.017 L 312.019 170.017 L 312.019 279.078 Z " fill="rgb(255,178,34)"/><path d=" M 239.409 262.019 L 239.409 262.019 L 239.409 262.019 Q 262.009 262.019 274.912 249.626 L 274.912 249.626 L 274.912 249.626 Q 287.816 237.232 287.816 214.924 L 287.816 214.924 L 287.816 200.49 L 263.613 201.51 L 263.613 201.51 Q 234.743 202.531 221.986 210.477 L 221.986 210.477 L 221.986 210.477 Q 209.228 218.424 209.228 235.191 L 209.228 235.191 L 209.228 235.191 Q 209.228 248.313 217.174 255.166 L 217.174 255.166 L 217.174 255.166 Q 225.12 262.019 239.409 262.019 Z " fill="rgb(255,255,255)"/><path d=" M 242.302 251.454 L 242.302 251.454 L 242.302 251.454 Q 257.727 251.454 266.535 243.317 L 266.535 243.317 L 266.535 243.317 Q 275.342 235.179 275.342 220.532 L 275.342 220.532 L 275.342 211.054 L 258.822 211.724 L 258.822 211.724 Q 239.118 212.394 230.41 217.612 L 230.41 217.612 L 230.41 217.612 Q 221.702 222.83 221.702 233.839 L 221.702 233.839 L 221.702 233.839 Q 221.702 242.455 227.126 246.955 L 227.126 246.955 L 227.126 246.955 Q 232.549 251.454 242.302 251.454 Z " fill="rgb(83,83,83)"/><path d=" M 413.498 262.019 L 413.498 262.019 L 413.498 262.019 Q 419.914 262.019 425.892 261.071 L 425.892 261.071 L 425.892 261.071 Q 431.87 260.123 435.369 259.103 L 435.369 259.103 L 435.369 277.62 L 435.369 277.62 Q 431.432 279.515 423.778 280.755 L 423.778 280.755 L 423.778 280.755 Q 416.123 281.994 409.999 281.994 L 409.999 281.994 L 409.999 281.994 Q 363.634 281.994 363.634 233.15 L 363.634 233.15 L 363.634 138.086 L 340.743 138.086 L 340.743 126.422 L 363.634 116.361 L 373.84 82.243 L 387.837 82.243 L 387.837 119.277 L 434.203 119.277 L 434.203 138.086 L 387.837 138.086 L 387.837 232.129 L 387.837 232.129 Q 387.837 246.564 394.69 254.291 L 394.69 254.291 L 394.69 254.291 Q 401.543 262.019 413.498 262.019 Z " fill="rgb(255,178,34)"/><path d=" M 430.559 260.773 C 442.654 256.83 451.536 247.383 454.759 244.218 C 519.91 180.232 386.375 23.744 501.507 2.738 C 514.545 0.359 515.31 -0.574 516.214 0.354 C 516.36 0.503 519.299 13.722 516.01 13.934 C 445.679 18.48 471.966 86.719 486.149 150.546 C 491.138 178.596 490.22 215.147 482.983 234.303 C 473.769 258.693 440.043 277.399 432.477 278.731 C 426.172 279.841 425.111 262.549 430.559 260.773 Z " fill="rgb(255,178,34)"/></g></g></g></svg>